# xmcd CD database file
#
# Track frame offsets:
#	150
#	19108
#	65442
#	85201
#	112539
#	138445
#
# Disc length: 2387 seconds
#
# Revision: 0
# Processed by: cddbd v1.5.2PL0 Copyright (c) Steve Scherf et al.
# Submitted via: CDex 1.51
#
DISCID=41095106
DTITLE=Vidya Rao - Dharma Nada
DYEAR=1900
DGENRE=New Age
TTITLE0=in praise of saraswati
TTITLE1=Homage to twenty one taras
TTITLE2=Praise to Mahadeva - Lord of the 3 worlds and protector of the Dharma
TTITLE3=Homage to the supreme reality - Nagarjuna
TTITLE4=Selected verses of Boddhicaryavatara
TTITLE5=Mantras - Buddha Sakyamuni - Avalokitesvara - Manjusri - Vajrapani - Usnesa
EXTD=
EXTT0=
EXTT1=
EXTT2=
EXTT3=
EXTT4=
EXTT5=
PLAYORDER=
